<?xml version="1.0" standalone="no"?>
<!DOCTYPE svg PUBLIC "-//W3C//DTD SVG 20010904//EN"
 "http://www.w3.org/TR/2001/REC-SVG-20010904/DTD/svg10.dtd">
<svg version="1.0" xmlns="http://www.w3.org/2000/svg"
 width="16.000000pt" height="16.000000pt" viewBox="0 0 16.000000 16.000000"
 preserveAspectRatio="xMidYMid meet">
<metadata>
Created by potrace 1.11, written by Peter Selinger 2001-2013
</metadata>
<g transform="translate(0.000000,16.000000) scale(0.001600,-0.001600)"
fill="#000000" stroke="none">
<path d="M4913 9980 c-33 -13 -53 -51 -59 -111 -4 -30 -7 -378 -9 -774 -1
-396 -5 -736 -9 -755 -17 -82 -28 -110 -68 -171 -69 -105 -79 -126 -74 -164 7
-59 45 -161 75 -202 l28 -38 159 -1 c87 0 193 -4 234 -8 95 -9 226 -31 365
-61 192 -42 176 -41 201 -12 32 37 51 117 45 189 -3 41 -110 112 -289 193
-186 83 -287 135 -322 164 -51 42 -58 89 -60 396 -1 149 -4 338 -6 420 -2 83
-6 310 -8 505 -4 388 -5 398 -61 425 -36 16 -107 19 -142 5z"/>
<path d="M3900 7752 c-53 -31 -122 -77 -185 -124 -21 -16 -189 -152 -219 -177
-72 -61 -286 -283 -349 -361 -153 -189 -288 -425 -387 -675 -24 -60 -89 -247
-145 -415 -162 -481 -188 -548 -232 -595 -44 -47 -93 -66 -208 -80 -59 -7 -86
-29 -114 -94 -26 -61 -31 -87 -37 -196 -4 -62 -2 -102 8 -130 12 -36 18 -41
81 -65 119 -44 177 -123 213 -295 24 -112 23 -2737 -1 -3295 -8 -187 -16 -346
-20 -375 -1 -16 -6 -57 -9 -90 -15 -132 -62 -257 -113 -301 -14 -12 -45 -27
-68 -33 -55 -14 -71 -34 -91 -116 -31 -131 -27 -285 9 -307 20 -13 5845 -10
5868 3 34 18 65 132 75 275 6 76 5 82 -19 110 l-25 29 -281 2 c-454 3 -527 6
-617 28 -32 7 -64 40 -74 77 -19 66 -23 388 -24 2023 l-1 1660 -23 56 c-24 60
-52 90 -98 106 -19 7 -135 10 -300 9 -244 -1 -273 -3 -298 -19 -58 -38 -99
-188 -112 -411 -10 -154 4 -181 113 -216 116 -39 169 -89 201 -192 28 -87 31
-193 31 -1113 -1 -854 -6 -1098 -34 -1487 -4 -43 -8 -86 -10 -96 -1 -10 -6
-48 -10 -85 -12 -134 -43 -217 -96 -261 -113 -95 -269 -104 -313 -18 -37 71
-47 557 -50 2422 -3 1295 -3 1316 -23 1360 -26 57 -50 79 -115 101 -47 16 -94
17 -469 16 -393 -2 -418 -3 -438 -21 -49 -44 -90 -226 -97 -434 l-4 -123 29
-30 c19 -18 41 -29 60 -30 17 -1 34 -2 39 -3 4 -1 27 -6 52 -10 114 -19 240
-83 295 -148 58 -69 99 -168 111 -269 29 -252 36 -1821 9 -2129 -2 -19 -6 -73
-9 -120 -4 -47 -9 -96 -11 -110 -2 -14 -7 -54 -11 -90 -3 -36 -7 -67 -9 -71
-2 -3 -7 -28 -11 -55 -3 -27 -10 -59 -15 -71 -5 -13 -7 -23 -4 -23 8 0 -46
-124 -62 -143 -53 -57 -145 -77 -348 -74 -144 2 -165 5 -207 25 -72 36 -85 72
-95 262 -7 142 -8 1041 -2 2640 2 696 -4 899 -29 946 -37 69 -94 81 -402 83
-255 1 -288 3 -334 21 -38 14 -45 39 -42 141 5 144 33 228 83 247 20 8 589 12
1978 15 1073 3 1968 8 1990 12 46 8 79 31 95 64 20 44 42 165 46 262 4 93 3
97 -22 123 -20 19 -38 26 -68 27 -22 0 -356 2 -741 4 -385 2 -1296 6 -2025 10
-1714 8 -1736 8 -1781 27 -44 19 -57 59 -53 170 4 138 46 222 191 381 104 114
144 192 190 367 21 79 25 124 29 270 6 305 15 342 122 499 57 85 183 249 235
306 10 11 44 58 75 104 45 68 56 92 56 125 0 63 -11 93 -51 137 -75 83 -141
91 -243 31z m-118 -4006 c47 -20 143 -108 173 -161 41 -69 54 -125 70 -290 36
-384 42 -1714 11 -2140 -13 -172 -18 -228 -21 -243 -1 -9 -6 -39 -9 -67 -7
-48 -10 -72 -21 -135 -12 -66 -47 -140 -83 -171 -114 -101 -289 -114 -346 -26
-30 45 -40 171 -51 642 -13 525 -4 2235 14 2528 1 24 47 65 85 76 42 12 134 5
178 -13z m-885 -199 c59 -40 80 -119 99 -367 35 -467 40 -1659 9 -2055 -4 -47
-14 -169 -20 -226 -13 -144 -37 -263 -63 -314 -18 -38 -88 -103 -128 -121 -36
-15 -70 -9 -80 14 -12 28 -15 269 -15 1277 0 1095 7 1703 21 1739 10 28 47 65
75 76 28 11 65 3 102 -23z"/>
<path d="M7174 4395 c-25 -10 -36 -25 -52 -67 -45 -122 -74 -402 -49 -478 9
-25 28 -45 68 -71 69 -46 85 -70 109 -165 33 -129 37 -248 41 -1324 2 -714 7
-862 35 -958 21 -75 44 -95 100 -87 62 8 68 12 92 53 18 33 80 254 96 342 27
158 32 540 21 1610 l-6 545 36 107 c31 95 35 119 36 215 2 188 -13 240 -77
273 -40 21 -404 25 -450 5z"/>
</g>
</svg>
