<?xml version="1.0"?>
<svg xmlns="http://www.w3.org/2000/svg" xmlns:xlink="http://www.w3.org/1999/xlink" width="435.794px" height="140px"><path fill="#FFFFFF" d="M132.25,94.05q.45-.75,1.2-1.8c.7-1.1,1.3-1.9,1.8-2.7a22.4,22.4,0,0,1,2.4-2.9h-4.5l-.5,1.1h.7c.5,0,.7.1.7.4a2.59,2.59,0,0,1-.6,1.7l-2.7,4-4-7.1h-14.2l-.3,3.3h1.3l.1-.8c0-.4.2-.6.6-.9.7-.5,2.4-.5,3.8-.5V100a3.18,3.18,0,0,1-.2,1.4,1.77,1.77,0,0,1-.5.8h4.9l.4-1.1h-.7a1.43,1.43,0,0,1-1.3-.5,1.5,1.5,0,0,1-.2-1V87.65c.7,0,3.2,0,3.7.4a11.87,11.87,0,0,1,1.6,2,16.28,16.28,0,0,0,1.1,1.7,21.37,21.37,0,0,1,2.1,3.8v4a3.9,3.9,0,0,1-.2,1.6,2.41,2.41,0,0,1-.6.8h5l.4-1.1h-.7a1.7,1.7,0,0,1-1.3-.4,1.5,1.5,0,0,1-.2-1s-.1-3.7,0-4.2A4.14,4.14,0,0,0,132.25,94.05ZM100.65,93.15l-1.6-.7c-1.6-.7-3-1.5-2.8-2.9.4-2.6,6.1-3,5.6.4h1.5l.7-3.1a13.74,13.74,0,0,0-4.2-.6c-3.3,0-6.3,1.6-6,4.3.2,1.9,1.7,2.8,3.6,3.6l1.6.7c1.8.8,3.3,1.6,3.3,3.2s-1.7,3-3.9,3c-3,0-4-.9-4-.9l-5.8-6.3c2.2-.4,3.8-1.9,3.7-3.9-.1-2.5-2.9-3.4-5.3-3.3h-6.4l-.4,1h.6a1,1,0,0,1,.9.4c.4.4.4,1.4.4,2.4v9.8a2.49,2.49,0,0,1-.7,1.9h4.6l.4-1.1h-.6c-.9,0-1.2-.5-1.2-1.3V87.85c2.5-.4,5.1.3,5.1,2.5,0,1.7-1.8,2.9-4.6,3l7.6,8.7s4.2.3,5.4.3c3.6.1,6.6-2,6.6-5C104.75,95.15,102.75,94.15,100.65,93.15ZM50.15,60.05h-1.5l.1-.7a2.24,2.24,0,0,0-.6-2.1c-.7-.8-3.5-.7-5.3-.7V74a3.23,3.23,0,0,0,.3,1.6,2.17,2.17,0,0,0,1.9.7h.8l-.4,1.1h-5.9a4.05,4.05,0,0,0,.5-.9,5.11,5.11,0,0,0,.3-2.1V56.55c-1.9,0-4.4,0-5.4.8-.6.5-.9.8-.9,1.5l-.1.9h-1.4l.5-4.4h18.1ZM66,77.25h-4.4a4.21,4.21,0,0,0,.4-1.8V69a4.28,4.28,0,0,1-2.2.6c-.7,0-1.5.1-2.3.1-1.4.1-2.1.1-3.4.1V75c0,.9.3,1.3,1.3,1.3H56l-.4,1.1H51a4.66,4.66,0,0,0,.6-2V65c0-.5.1-1.4-.3-1.8s-.6-.3-1.1-.3h-.6l.4-1.1h4.2c-.1.3-.2.4-.2.6a13.4,13.4,0,0,0-.1,2v3.7h7.9v-3.2c0-.5.1-1.4-.3-1.8-.2-.3-.6-.3-1-.3H60l.5-1.1h4.2c-.1.4-.2.4-.2.6a14.08,14.08,0,0,0-.1,2v10.5c0,.9.3,1.3,1.4,1.3h.7ZM79,77.25H68a3.33,3.33,0,0,0,.6-1,5.46,5.46,0,0,0,.1-1.8v-8.9a8.2,8.2,0,0,0-.2-2.2,1.15,1.15,0,0,0-1.1-.6h-.6l.4-1h11.4l-.5,3.4h-1.4a2.17,2.17,0,0,0-.5-1.8c-.5-.5-1.9-.6-3.3-.6a5.25,5.25,0,0,0-1.8.2v5.2h6.2c-.4,1.1-1.2,1.3-2.3,1.4-.5,0-.9.1-1.5.1a20.83,20.83,0,0,1-2.5,0v4.6a2.59,2.59,0,0,0,.4,1.4,4.9,4.9,0,0,0,2.5.4c1.2,0,2.2,0,2.9-.8a3.11,3.11,0,0,0,.9-1.7h1.6ZM24.35,102.25h-5v-2c-3.4,1.8-6.7,3.1-10.5,2-4.4-1.3-4.1-6.5-4.2-11.1,0-3.5.9-7.8.3-9a1.89,1.89,0,0,0-1.6-.9h-.6l.3-1.1h5.5a2.46,2.46,0,0,0-.4,1.1,71,71,0,0,0-.9,10.3c0,4.1.3,7.8,3.9,8.8,3.1.9,5.7,0,8.1-1.6V83.85c0-.9,0-1.6-.7-2.1a2.35,2.35,0,0,0-1.6-.5h-.3l.3-1.1h5.5a3.49,3.49,0,0,0-.5,1.3,9.66,9.66,0,0,0-.1,2.4v14c0,1.1,0,2.1.9,2.7a2.35,2.35,0,0,0,1.6.5h.4ZM40.75,87.85a16.41,16.41,0,0,0-.2,2.3v12h-1.9a2.62,2.62,0,0,0-.6-1.3,14.63,14.63,0,0,0-.9-1.3l-8.5-9.9v8.6a6,6,0,0,0,.3,2.3,1.27,1.27,0,0,0,1.1.5h.6l-.4,1.1h-4.4a2.59,2.59,0,0,0,.7-1.1,5.58,5.58,0,0,0,.3-2.2v-9c0-.5,0-1.5-.4-1.9-.2-.3-.6-.3-1-.3h-.6l.4-1h4.6a5.15,5.15,0,0,0,1.4,2.1l7.8,9.1v-7.8a3.16,3.16,0,0,0-.4-2.1,1.16,1.16,0,0,0-1-.4h-.6l.4-1h4A5.73,5.73,0,0,0,40.75,87.85ZM49.15,102.25h-4.9a3.51,3.51,0,0,0,.5-.8A3.64,3.64,0,0,0,45,100V89.25a1.56,1.56,0,0,0-.3-1.2,1.09,1.09,0,0,0-.9-.4h-.5l.4-1H48a3.51,3.51,0,0,0-.5.8,5.57,5.57,0,0,0-.2,2v10.2a2.51,2.51,0,0,0,.2,1,1.46,1.46,0,0,0,1.2.4h.7ZM63.35,90.65c-.6,1.2-1.1,2.5-1.8,4.1-1.2,2.6-2.4,5.7-2.5,7.6H57a56.21,56.21,0,0,0-2.8-8,33.57,33.57,0,0,0-3-5.9,1.52,1.52,0,0,0-1.2-.7h-.6l.3-1h3.9l4.8,11.7,3.6-8.5a2.7,2.7,0,0,0,.3-1.6,1,1,0,0,0-1-.6h-.6l.3-1h4.8A19,19,0,0,0,63.35,90.65ZM78.85,102.15h-11a3.33,3.33,0,0,0,.6-1,5.46,5.46,0,0,0,.1-1.8v-8.9a8.2,8.2,0,0,0-.2-2.2,1.15,1.15,0,0,0-1.1-.6h-.6l.4-1h11.4l-.5,3.4h-1.4a2.17,2.17,0,0,0-.5-1.8c-.5-.5-1.9-.6-3.3-.6a5.25,5.25,0,0,0-1.8.2v5.2h6.2c-.4,1.1-1.2,1.3-2.3,1.4-.5,0-.9.1-1.5.1a20.83,20.83,0,0,1-2.5,0v4.6a2.59,2.59,0,0,0,.4,1.4,4.9,4.9,0,0,0,2.5.4c1.2,0,2.2,0,2.9-.8a3.11,3.11,0,0,0,.9-1.7h1.6ZM111.75,102.25h-4.9a3.51,3.51,0,0,0,.5-.8,3.64,3.64,0,0,0,.2-1.5V89.25a1.56,1.56,0,0,0-.3-1.2,1.09,1.09,0,0,0-.9-.4h-.5l.4-1h4.4a3.51,3.51,0,0,0-.5.8,5.57,5.57,0,0,0-.2,2v10.2a2.51,2.51,0,0,0,.2,1,1.46,1.46,0,0,0,1.2.4h.7ZM54.65,119c.7,3.5-1.1,7-4.8,7.7s-6.8-2.1-7.5-5.7.8-7.1,4.6-7.8S54,115.35,54.65,119Zm2.8-.1c-.6-4.5-4.5-7.7-10-6.9-5.3.7-8.3,4.4-7.7,9.1.6,4.5,4.3,7.5,9.7,6.8S58,123.45,57.45,118.85ZM69,115.55h-1.4a2.33,2.33,0,0,0-.6-1.8c-.4-.5-1.6-.6-2.9-.6a5.25,5.25,0,0,0-1.8.2v5.2h6.2a2,2,0,0,1-.8,1.2,9.82,9.82,0,0,1-2.8.4,22.53,22.53,0,0,1-2.6,0v4.9a2.23,2.23,0,0,0,.4,1.3,1.6,1.6,0,0,0,1.1.4h.8a10.23,10.23,0,0,0-.3,1.1h-5a3.33,3.33,0,0,0,.6-1,5.31,5.31,0,0,0,.1-1.8v-8.9a9,9,0,0,0-.2-2.3,1.25,1.25,0,0,0-1.2-.5h-.7l.4-1h11.1ZM84.35,127.85h-5.9a4.05,4.05,0,0,0,.5-.9,5.11,5.11,0,0,0,.3-2.1v-15.5a2.29,2.29,0,0,0-.4-1.7,1.82,1.82,0,0,0-1.4-.6H77l.3-1.1h5.3a5.58,5.58,0,0,0-.5.8,9,9,0,0,0-.4,3.1v14.6a3.51,3.51,0,0,0,.3,1.6,2.17,2.17,0,0,0,1.9.7h.7ZM100.15,119c.7,3.5-1.1,7-4.8,7.7s-6.8-2.1-7.5-5.7.8-7.1,4.6-7.8A6.73,6.73,0,0,1,100.15,119Zm2.8-.1c-.6-4.5-4.5-7.7-10-6.9-5.3.7-8.3,4.4-7.7,9.1.6,4.5,4.3,7.5,9.7,6.8S103.55,123.45,103,118.85ZM124.25,116.05c-.6,1.2-1.1,2.5-1.8,4.1a22.49,22.49,0,0,0-2.1,7.6h-2a63.89,63.89,0,0,0-2.5-7.6,12.2,12.2,0,0,0-.7-1.7c-.3.6-.6,1.1-1.2,2.4a22.22,22.22,0,0,0-2.1,7h-2.1a56.21,56.21,0,0,0-2.8-8,33.57,33.57,0,0,0-3-5.9,1.52,1.52,0,0,0-1.2-.7h-.5l.3-1h4l4.5,11.8c.7-1.5,3.1-7.1,3.1-7.2a13,13,0,0,0-1.5-3c-.4-.4-.7-.7-1.2-.7h-.6l.4-1h4c1.3,3.3,3.2,8.6,4.2,11.6l3.3-8.2c.3-.7.6-1.6.4-1.8a1,1,0,0,0-1-.6h-.6l.3-1h4.8A23,23,0,0,0,124.25,116.05ZM133,120.55a22.4,22.4,0,0,1-4.5-.1l2.3-5.7Zm6.9,6h-.6a1.52,1.52,0,0,1-1.2-.7c-.5-.5-1.8-3.6-2.8-6a62,62,0,0,1-2.7-7.9H129c.8,1.6-.6,4.8-1.8,7.5a35,35,0,0,1-4.5,8.2h5l.3-1.1h-.6a.92.92,0,0,1-1-.6,3.64,3.64,0,0,1,.3-1.6l1-2.3h3.6a2.35,2.35,0,0,0,1.9-.7l2.3,6.4h3.9ZM113.25,12.35c0,1-.1,2.7.4,3,1.4.9,3.8,1.6,4.6,2.5.2.2,0,1.9-.6,1.8a22.86,22.86,0,0,0-6.8-.8,3.7,3.7,0,0,1-.9-2c0-.5.7-1,.9-1.8.4-1.3.1-7.5.2-11.7,0-.9.1-1.3,1-1.3s1,.6,1,1.3C113.15,6.35,113.25,9.45,113.25,12.35ZM128.65,44.25a11.21,11.21,0,0,1,3.2,0,.62.62,0,0,1,.5.3,5.83,5.83,0,0,1,.2,2.3c0,1-.5,1.5-.5,2.3.1,6.7.2,14.6-.1,16-.6,2.4-.5,2.8-1.5,2.9-.3,0-.6,0-.7-.9a16.53,16.53,0,0,1-.2-2.7c0-2.8,0-9.9-.1-12.7-.1-2.5-.8-2.7-.9-2.8s-.6-.3-.6-.7a8.52,8.52,0,0,1,.4-3.6C128.35,44.55,128.45,44.25,128.65,44.25ZM133.75,74c-2.3,0-5.7.1-6.4-.3-.4-.3-.4-.9-.4-2.2-.2-8.5.1-16.9-.1-25.4,0-.7-.2-1.9-1.3-1.9a22.52,22.52,0,0,0-4,.1.78.78,0,0,0-.4.4,8.75,8.75,0,0,0-.5,3.6c0,.3.2.6.7.7,1.2.3,1.9,1,1.9,2.8.1,6.4.2,18.9-.6,21-.4,1-2.3,1.7-2.9.6-.4-.8-.3-19.6-.3-27.3,0-1.4-.4-1.9-1.9-1.9H112a.69.69,0,0,0-.6.5c-.4,1.1-.7,3.6-.4,3.9a1,1,0,0,0,.6.4c2.5.3,3.7,1.4,3.7,4,.1,4,.7,18.9-1.1,20.5-.7.6-3.4.5-4,.3a1.07,1.07,0,0,1-.7-.9c-.5-4.5.2-26.8-.3-28a1,1,0,0,0-.8-.6c-.7-.2-4,0-4.7-.2-.1-.1-.4-.1-.4-.4a4.31,4.31,0,0,1,.3-2.3.91.91,0,0,1,.8-.3c9.8,0,23.8.1,29.1-.1.3,0,.9-.1,1-.6a8.32,8.32,0,0,0,.3-2.6c-.1-.3-.2-.4-.5-.4-.6-.1-22,0-32.9-.2-.6,0-1.6.1-1.8-.4a5,5,0,0,1,.1-2.1c1.1-2.1,2-1.7,2.7-4.8.4-1.9-.2-3.4.7-4.9,1.2-2,2.2-2.7,3-4.1a1.5,1.5,0,0,0-1.6-2,23.35,23.35,0,0,0-7.6,7.3c-1.9,3.2-2.6,6.7-3.9,10.1-.3.9-.8,1.1-2.2,1.2-.8.1-1.2,3.1-.6,3.5.1.1.3.1.4.2,1.2.3,1.7,1.8,1.7,3.2,0,0,.3,25.3-.4,28-.5,1.9-1,1.6-1.5,1.9a.75.75,0,0,0-.3.3,6.61,6.61,0,0,0-.3,2.5c.1.2.1.4.5.4h43.5c.4,0,.5-.1.7-.6a8.81,8.81,0,0,0,.3-2.1A1,1,0,0,0,133.75,74Zm-37.2-.8c-.8.9-1.5,1.2-1.5.2-.1-7,0-21.7.1-22.1.2-.8,1.3-1.2,1.8.1C97.55,52.85,97.85,71.75,96.55,73.15Zm7.7,0c-.8.9-2.5,1.2-2.9.2-.6-1.6-.3-23.3-.2-23.7.2-.8,1.7-.7,2.2-.4,1.3.9,1.5,1.6,1.6,3.7C105.35,58.75,105.45,71.75,104.25,73.15Z"/><path fill="#FFFFFF" d="M211.347,71.1195q0,3.621-1.207,6.2835t-3.31925,4.41975t-5.0055,2.60925t-6.26575,0.852q-1.5975,0-3.2305-0.1065t-3.195-0.5325l0-24.2465l8.6265,0q2.8755,0,5.3605,0.426t4.31325,1.5975t2.8755,3.266t1.04725,5.4315z M206.1285,71.9715q0-2.272-0.58575-3.763t-1.68625-2.36075t-2.698-1.207t-3.6565-0.33725l-3.7275,0l0,16.8625q0.781,0.2485,1.5975,0.30175t1.633,0.05325q2.1655,0,3.8695-0.69225t2.8755-1.9525t1.775-3.0175t0.6035-3.88725z M215.5005,85l0-18.318l4.331,0l0,18.318l-4.331,0z M220.3285,60.3985q0,1.207-0.6745,1.86375t-1.9525,0.65675q-1.2425,0-1.9525-0.71t-0.71-1.8815q0-1.136,0.71-1.82825t1.8815-0.69225q1.2425,0,1.97025,0.69225t0.72775,1.89925z M234.0315,85l-3.621,0l-7.242-18.318l4.828,0l4.686,12.1055l3.905-12.1055l4.047,0z M244.3975,85l0-18.318l4.331,0l0,18.318l-4.331,0z M249.2255,60.3985q0,1.207-0.6745,1.86375t-1.9525,0.65675q-1.2425,0-1.9525-0.71t-0.71-1.8815q0-1.136,0.71-1.82825t1.8815-0.69225q1.2425,0,1.97025,0.69225t0.72775,1.89925z M258.633,85.3905q-0.71,0-1.491-0.1065t-1.562-0.30175t-1.491-0.51475t-1.278-0.7455l1.1005-3.1595q0.994,0.7455,2.1655,1.207t2.414,0.4615q1.0295,0,1.8105-0.5325t0.781-1.6685q0-0.8165-0.58575-1.29575t-1.47325-0.86975t-1.93475-0.781t-1.93475-1.01175t-1.47325-1.57975t-0.58575-2.485t0.55025-2.60925t1.47325-1.75725t2.14775-0.994t2.60925-0.3195q1.3135,0,2.698,0.284t2.485,1.0295l-1.065,3.195q-0.852-0.6035-1.8815-0.90525t-2.0945-0.30175q-0.8165,0-1.5265,0.37275t-0.71,1.36675q0,0.8165,0.6035,1.29575t1.491,0.852t1.93475,0.76325t1.93475,0.994t1.491,1.562t0.6035,2.4495q0,1.5975-0.58575,2.75125t-1.562,1.89925t-2.28975,1.1005t-2.769,0.355z M270.5255,85l0-18.318l4.331,0l0,18.318l-4.331,0z M275.3535,60.3985q0,1.207-0.6745,1.86375t-1.9525,0.65675q-1.2425,0-1.9525-0.71t-0.71-1.8815q0-1.136,0.71-1.82825t1.8815-0.69225q1.2425,0,1.97025,0.69225t0.72775,1.89925z M288.169,85.3905q-2.059,0-3.692-0.6745t-2.78675-1.89925t-1.75725-2.911t-0.6035-3.70975q0-2.1655,0.6035-3.976t1.775-3.124t2.89325-2.04125t3.95825-0.72775q2.059,0,3.692,0.6745t2.78675,1.89925t1.75725,2.89325t0.6035,3.692q0,2.1655-0.6035,3.976t-1.775,3.124t-2.89325,2.059t-3.95825,0.7455z M288.311,82.0535q1.3135,0,2.18325-0.568t1.36675-1.4555t0.69225-2.00575t0.19525-2.21875q0-1.0295-0.19525-2.13t-0.69225-1.988t-1.33125-1.4555t-2.11225-0.568q-1.3135,0-2.1655,0.55025t-1.349,1.43775t-0.69225,2.00575t-0.19525,2.21875q0,1.065,0.19525,2.14775t0.69225,1.988t1.3135,1.47325t2.0945,0.568z M313.5515,85l0-10.366q0-0.852-0.12425-1.68625t-0.47925-1.491t-0.994-1.04725t-1.6685-0.3905q-1.349,0-2.1655,0.51475t-1.2425,1.33125t-0.55025,1.89925t-0.12425,2.18325l0,9.0525l-4.331,0l0-18.318l3.763,0l0,3.3725l1.704-2.5915q1.1005-0.6035,2.14775-0.852t2.28975-0.2485q3.337,0,4.70375,1.775t1.36675,4.9345l0,11.928l-4.2955,0z M341.632,85.3905q-2.059,0-3.692-0.6745t-2.78675-1.89925t-1.75725-2.911t-0.6035-3.70975q0-2.1655,0.6035-3.976t1.775-3.124t2.89325-2.04125t3.95825-0.72775q2.059,0,3.692,0.6745t2.78675,1.89925t1.75725,2.89325t0.6035,3.692q0,2.1655-0.6035,3.976t-1.775,3.124t-2.89325,2.059t-3.95825,0.7455z M341.774,82.0535q1.3135,0,2.18325-0.568t1.36675-1.4555t0.69225-2.00575t0.19525-2.21875q0-1.0295-0.19525-2.13t-0.69225-1.988t-1.33125-1.4555t-2.11225-0.568q-1.3135,0-2.1655,0.55025t-1.349,1.43775t-0.69225,2.00575t-0.19525,2.21875q0,1.065,0.19525,2.14775t0.69225,1.988t1.3135,1.47325t2.0945,0.568z M359.666,85l-4.331,0l0-14.91l-2.272,0l0-3.408l2.272,0l0-3.053q0-2.982,1.26025-4.56175t4.38425-1.57975q0.923,0,1.7395,0.12425t1.6685,0.55025l-0.1065,3.2305q-0.994-0.355-2.13-0.355q-0.923,0-1.42,0.355t-0.7455,0.94075t-0.284,1.3135t-0.0355,1.43775l0,1.5975l4.2955,0l0,3.408l-4.2955,0l0,14.91z M188.6625,122.63q1.136,0.852,2.43175,1.3135t2.75125,0.4615q1.5265,0,2.627-0.71t1.1005-2.414q0-1.349-0.76325-2.13t-1.93475-1.349t-2.50275-1.1005t-2.50275-1.349t-1.93475-2.11225t-0.76325-3.42575q0-1.8815,0.65675-3.266t1.79275-2.272t2.6625-1.3135t3.266-0.426q1.5975,0,3.1595,0.37275t2.911,1.26025l-1.42,3.5145q-1.0295-0.71-2.201-1.1005t-2.414-0.3905q-0.6745,0-1.29575,0.15975t-1.08275,0.51475t-0.7455,0.8875t-0.284,1.278q0,1.3135,0.781,2.07675t1.9525,1.3135t2.556,1.065t2.556,1.349t1.9525,2.1655t0.781,3.46125q0,1.9525-0.71,3.39025t-1.89925,2.36075t-2.78675,1.3845t-3.408,0.4615q-1.704,0-3.55-0.47925t-3.195-1.50875z M216.6365,126.6415q-1.136,0.71-2.4495,0.994t-2.627,0.284q-0.8875,0-1.75725-0.213t-1.50875-0.852q-0.781-0.7455-0.923-1.75725t-0.142-2.00575l0-10.4015l-2.272,0l0-3.408l2.272,0l0.355-5.2185l3.976,0l0,5.2185l4.2955,0l0,3.408l-4.2955,0l0,9.017q0,0.5325,0.0355,1.01175t0.213,0.852t0.55025,0.58575t1.01175,0.213q1.42,0,2.8045-0.568l0.4615,2.84l0,0z M232.292,127.6l-0.284-2.2365l-1.207,1.704q-0.9585,0.497-1.988,0.69225t-2.1655,0.19525q-3.053,0-4.52625-1.6685t-1.47325-4.686l0-12.3185l4.331,0l0,11.3245q0,0.852,0.12425,1.5975t0.4615,1.278t0.9585,0.852t1.57975,0.3195q1.207,0,1.93475-0.3905t1.11825-1.065t0.5325-1.5975t0.142-1.9525l0-10.366l4.331,0l0,14.555q0,0.923,0.05325,1.8815t0.12425,1.8815l-4.047,0z M253.592,127.6l-0.355-2.6625l-1.42,2.1655q-0.8165,0.4615-1.57975,0.62125t-1.68625,0.15975q-1.9525,0-3.46125-0.72775t-2.5205-1.9525t-1.5265-2.8755t-0.51475-3.46125q0-2.059,0.71-4.10025t2.272-3.49675q1.3845-1.3135,3.17725-1.82825t3.70975-0.51475q0.71,0,1.3845,0.1065t1.3135,0.3905l0-8.8395l4.331,0l0,22.1165q0,0.426,0.01775,1.08275t0.05325,1.36675t0.071,1.36675t0.071,1.08275l-4.047,0z M253.0595,113.045q-0.3905-0.6035-1.207-0.83425t-1.7395-0.23075q-1.349,0-2.25425,0.5325t-1.47325,1.40225t-0.8165,1.97025t-0.2485,2.272q0,0.9585,0.19525,2.04125t0.6745,2.0235t1.278,1.562t1.97025,0.62125q1.1005,0,1.79275-0.44375t1.1005-1.1715t0.568-1.61525t0.15975-1.8105l0-6.319z M278.442,117.305q0,0.3905-0.01775,0.8165t-0.05325,0.8165l-11.9635-0.0355q0.1065,2.8045,1.8815,4.189t4.4375,1.3845q1.1715,0,2.32525-0.30175t2.21875-0.79875l0.5325,3.053q-1.3845,0.8875-3.17725,1.22475t-3.42575,0.33725q-2.1655,0-3.905-0.6745t-2.9465-1.917t-1.86375-2.99975t-0.65675-3.92275t0.55025-3.92275t1.6685-3.0175t2.769-1.93475t3.88725-0.6745q2.0945,0,3.56775,0.58575t2.39625,1.6685t1.349,2.627t0.426,3.49675z M273.8625,116.0625q-0.0355-0.852-0.19525-1.61525t-0.5325-1.349t-1.0295-0.94075t-1.65075-0.355q-0.9585,0-1.68625,0.355t-1.207,0.94075t-0.7455,1.3845t-0.30175,1.68625z M294.5235,127.6l0-10.366q0-0.852-0.12425-1.68625t-0.47925-1.491t-0.994-1.04725t-1.6685-0.3905q-1.349,0-2.1655,0.51475t-1.2425,1.33125t-0.55025,1.89925t-0.12425,2.18325l0,9.0525l-4.331,0l0-18.318l3.763,0l0,3.3725l1.704-2.5915q1.1005-0.6035,2.14775-0.852t2.28975-0.2485q3.337,0,4.70375,1.775t1.36675,4.9345l0,11.928l-4.2955,0z M314.297,126.6415q-1.136,0.71-2.4495,0.994t-2.627,0.284q-0.8875,0-1.75725-0.213t-1.50875-0.852q-0.781-0.7455-0.923-1.75725t-0.142-2.00575l0-10.4015l-2.272,0l0-3.408l2.272,0l0.355-5.2185l3.976,0l0,5.2185l4.2955,0l0,3.408l-4.2955,0l0,9.017q0,0.5325,0.0355,1.01175t0.213,0.852t0.55025,0.58575t1.01175,0.213q1.42,0,2.8045-0.568l0.4615,2.84l0,0z M329.136,127.6l0-24.6015l4.6505,0l0,20.661l9.159,0l0,3.9405l-13.8095,0z M347.099,127.6l0-18.318l4.331,0l0,18.318l-4.331,0z M351.927,102.9985q0,1.207-0.6745,1.86375t-1.9525,0.65675q-1.2425,0-1.9525-0.71t-0.71-1.8815q0-1.136,0.71-1.82825t1.8815-0.69225q1.2425,0,1.97025,0.69225t0.72775,1.89925z M362.009,127.6l-4.331,0l0-14.91l-2.272,0l0-3.408l2.272,0l0-3.053q0-2.982,1.26025-4.56175t4.38425-1.57975q0.923,0,1.7395,0.12425t1.6685,0.55025l-0.1065,3.2305q-0.994-0.355-2.13-0.355q-0.923,0-1.42,0.355t-0.7455,0.94075t-0.284,1.3135t-0.0355,1.43775l0,1.5975l4.2955,0l0,3.408l-4.2955,0l0,14.91z M384.516,117.305q0,0.3905-0.01775,0.8165t-0.05325,0.8165l-11.9635-0.0355q0.1065,2.8045,1.8815,4.189t4.4375,1.3845q1.1715,0,2.32525-0.30175t2.21875-0.79875l0.5325,3.053q-1.3845,0.8875-3.17725,1.22475t-3.42575,0.33725q-2.1655,0-3.905-0.6745t-2.9465-1.917t-1.86375-2.99975t-0.65675-3.92275t0.55025-3.92275t1.6685-3.0175t2.769-1.93475t3.88725-0.6745q2.0945,0,3.56775,0.58575t2.39625,1.6685t1.349,2.627t0.426,3.49675z M379.9365,116.0625q-0.0355-0.852-0.19525-1.61525t-0.5325-1.349t-1.0295-0.94075t-1.65075-0.355q-0.9585,0-1.68625,0.355t-1.207,0.94075t-0.7455,1.3845t-0.30175,1.68625z"/><path fill="#FFFFFF" d="M161 38 H 163.5 V 128 H 161"/></svg>
